<svg width="341" height="245" viewBox="0 0 341 245" fill="none" xmlns="http://www.w3.org/2000/svg">
<path d="M168.134 244.961H155.035V144.066H165.688C166.204 144.066 166.699 144.271 167.065 144.635C167.43 144.999 167.637 145.494 167.64 146.01L168.134 244.961Z" fill="#CCCCCC"/>
<path d="M156.259 245.495H15.5893V173.641H156.259V245.495Z" fill="white"/>
<path d="M100.814 245.228H15.8562V173.908H155.992V190.007C155.975 204.648 150.157 218.683 139.812 229.036C129.468 239.388 115.443 245.211 100.814 245.228Z" fill="#F2F2F2"/>
<path d="M166 146.932C165.93 147.066 165.875 147.208 165.837 147.354L160.986 166.066L155.725 176.038H16.1232V173.554L24.0712 166.066L33.3429 148.317C33.7522 147.534 34.2897 146.824 34.9331 146.219C36.4011 144.836 38.3409 144.066 40.3567 144.066H164.275C164.611 144.066 164.942 144.153 165.235 144.319C165.528 144.485 165.773 144.723 165.946 145.012C166.12 145.3 166.216 145.628 166.226 145.965C166.235 146.301 166.158 146.635 166 146.932Z" fill="#F2F2F2"/>
<path d="M156.259 245.495H15.5893V173.641H156.259V245.495ZM16.6571 244.426H155.191V174.709H16.6571V244.426Z" fill="#E6E6E6"/>
<path d="M163.578 156.504L160.986 166.066H24.0713L28.4954 158.107L163.578 156.504Z" fill="#CCCCCC"/>
<path d="M43.2007 211.293H20.7766V212.535H43.2007V211.293Z" fill="white"/>
<path d="M43.2007 215.64H20.7766V216.882H43.2007V215.64Z" fill="white"/>
<path d="M43.2007 219.986H20.7766V221.228H43.2007V219.986Z" fill="white"/>
<path d="M29.4629 197.46C33.9176 197.46 37.5288 193.846 37.5288 189.388C37.5288 184.93 33.9176 181.316 29.4629 181.316C25.0083 181.316 21.397 184.93 21.397 189.388C21.397 193.846 25.0083 197.46 29.4629 197.46Z" fill="white"/>
<path d="M117.866 160.643H111.016V107.88H116.587C116.857 107.88 117.116 107.987 117.307 108.177C117.499 108.368 117.607 108.626 117.608 108.897L117.866 160.643Z" fill="#CCCCCC"/>
<path d="M111.656 160.922H38.0927V123.346H111.656V160.922Z" fill="white"/>
<path d="M82.6613 160.783H38.2323V123.486H111.517V131.905C111.508 139.561 108.465 146.901 103.056 152.315C97.6461 157.729 90.3116 160.774 82.6613 160.783Z" fill="#F2F2F2"/>
<path d="M116.751 109.379C116.714 109.449 116.685 109.523 116.665 109.6L114.129 119.385L111.377 124.6H38.372V123.301L42.5284 119.385L47.3771 110.103C47.5911 109.693 47.8722 109.322 48.2087 109.006C48.9764 108.283 49.9908 107.88 51.045 107.88H115.848C116.024 107.88 116.197 107.926 116.35 108.012C116.503 108.099 116.632 108.224 116.722 108.374C116.813 108.525 116.864 108.697 116.869 108.873C116.874 109.049 116.833 109.223 116.751 109.379Z" fill="#F2F2F2"/>
<path d="M111.656 160.922H38.0927V123.346H111.656V160.922ZM38.6512 160.363H111.098V123.905H38.6512V160.363Z" fill="#E6E6E6"/>
<path d="M115.484 114.385L114.128 119.384H42.5285L44.842 115.223L115.484 114.385Z" fill="#CCCCCC"/>
<path d="M52.5322 143.037H40.8055V143.686H52.5322V143.037Z" fill="white"/>
<path d="M52.5322 145.31H40.8055V145.959H52.5322V145.31Z" fill="white"/>
<path d="M52.5322 147.583H40.8055V148.232H52.5322V147.583Z" fill="white"/>
<path d="M45.348 135.802C47.6776 135.802 49.5661 133.912 49.5661 131.581C49.5661 129.25 47.6776 127.36 45.348 127.36C43.0184 127.36 41.1299 129.25 41.1299 131.581C41.1299 133.912 43.0184 135.802 45.348 135.802Z" fill="white"/>
<path d="M263.942 82.6739L254.217 81.2799C250.929 86.7835 249.76 101.432 249.76 101.432L240.243 124.069C239.613 124.497 239.107 125.084 238.775 125.771C238.444 126.457 238.299 127.219 238.355 127.979C238.411 128.74 238.666 129.472 239.095 130.102C239.524 130.732 240.111 131.238 240.798 131.569C241.484 131.9 242.245 132.045 243.005 131.987C243.765 131.93 244.496 131.674 245.125 131.244C245.755 130.814 246.26 130.226 246.589 129.538C246.919 128.851 247.062 128.089 247.004 127.329L262.63 100.981L263.942 82.6739Z" fill="#FFB8B8"/>
<path d="M262.394 55.6566C263.899 55.8899 265.334 56.4523 266.597 57.3038C267.861 58.1552 268.921 59.2749 269.703 60.583C270.484 61.8912 270.968 63.3556 271.12 64.8723C271.272 66.3889 271.088 67.9204 270.582 69.3578L268.518 75.2112C268.518 75.2112 267.395 92.8361 263.111 97.8111L249.965 96.6203C249.965 96.6203 252.369 87.7283 250.524 83.426C249.394 80.7912 249.456 71.691 250.57 64.2882C250.778 62.9439 251.25 61.6539 251.958 60.4922C252.665 59.3305 253.594 58.3198 254.693 57.518C255.791 56.7163 257.037 56.1392 258.358 55.8198C259.679 55.5004 261.051 55.4449 262.394 55.6566Z" fill="#E6E6E6"/>
<path d="M294.531 238.535L288.673 238.534L285.886 215.923L294.532 215.924L294.531 238.535Z" fill="#FFB6B6"/>
<path d="M294.737 244.65L276.724 244.649V244.421C276.724 242.561 277.463 240.776 278.778 239.46C280.092 238.144 281.876 237.405 283.735 237.405H283.735L287.026 234.907L293.165 237.405L294.737 237.406L294.737 244.65Z" fill="#2F2E41"/>
<path d="M269.064 210.512L263.653 212.757L252.424 192.939L260.41 189.625L269.064 210.512Z" fill="#FFB6B6"/>
<path d="M271.596 216.081L254.957 222.986L254.869 222.776C254.157 221.057 254.156 219.125 254.867 217.406C255.578 215.686 256.942 214.32 258.66 213.607L258.66 213.607L260.743 210.038L267.37 209.992L268.823 209.389L271.596 216.081Z" fill="#2F2E41"/>
<path d="M301.228 109.909L259.658 114.256L254.097 132.999L234.84 163.97L256.102 203.065L263.59 196.339L256.403 164.769L277.856 141.59L281.924 139.901L285.153 225.911L297.097 226.107L302.324 131.201C304.835 122.817 304.079 115.894 301.228 109.909Z" fill="#2F2E41"/>
<path d="M285.987 50.5731L279.164 42.8843L268.382 44.0832L261.48 53.7507C257.805 54.5961 254.595 56.8185 252.508 59.9608C250.421 63.1031 249.617 66.9263 250.261 70.6437C252.94 86.0798 262.043 101.051 259.037 108.667C254.474 120.228 254.196 124.944 265.118 123.323C276.04 121.702 312.631 117.965 305.537 110.866C298.443 103.766 296.885 91.9022 296.885 91.9022L296.6 64.7599C296.902 63.1229 296.862 61.4411 296.482 59.8204C296.103 58.1996 295.392 56.675 294.395 55.3425C293.399 54.0099 292.137 52.8983 290.69 52.0775C289.243 51.2567 287.642 50.7445 285.987 50.5731L285.987 50.5731Z" fill="#E6E6E6"/>
<path d="M272.653 40.9168C279.263 40.9168 284.621 35.5544 284.621 28.9395C284.621 22.3247 279.263 16.9623 272.653 16.9623C266.043 16.9623 260.685 22.3247 260.685 28.9395C260.685 35.5544 266.043 40.9168 272.653 40.9168Z" fill="#FFB8B8"/>
<path d="M287.4 28.2283C286.865 30.655 285.901 32.9665 284.553 35.0534C284.195 35.7649 283.661 36.3725 283.001 36.8176C282.666 37.0322 282.268 37.1228 281.873 37.0735C281.479 37.0242 281.115 36.8382 280.844 36.5478L280.553 36.3104C281.124 35.9583 281.634 35.5155 282.062 34.9994C282.275 34.7404 282.422 34.4344 282.492 34.1069C282.563 33.7794 282.554 33.4398 282.467 33.1164C282.363 32.7975 282.141 32.531 281.845 32.3731C281.549 32.2151 281.204 32.178 280.882 32.2694C280.181 32.5445 279.755 33.5589 279.022 33.4024C278.429 33.2729 278.305 32.4906 278.305 31.8755C278.326 28.6599 276.774 24.0901 275.571 24.2304C274.357 24.2969 273.141 24.134 271.986 23.7502C270.831 23.3658 269.611 23.2101 268.396 23.2916C268.31 23.3024 268.223 23.3186 268.132 23.3348C267.937 22.7238 267.669 22.1387 267.334 21.5921C267.372 22.2519 267.339 22.9139 267.237 23.5668C266.27 23.9656 265.271 24.2815 264.25 24.5109C263.139 24.6674 260.697 27.9909 260.584 27.651C260.389 27.0401 260.121 26.4549 259.786 25.9083C259.824 26.5681 259.791 27.2301 259.689 27.883C259.684 27.91 259.684 27.9316 259.678 27.9585C259.139 27.2409 258.81 26.3669 258.994 27.0359C257.188 22.9463 257.888 20.0167 260.73 16.5691C261.283 15.8278 262.016 15.2393 262.859 14.8588C263.281 14.6732 263.744 14.5995 264.203 14.6449C264.662 14.6902 265.101 14.8531 265.479 15.1178C266.638 14.0545 268.06 13.3208 269.597 12.9926C271.135 12.6643 272.732 12.7536 274.224 13.251C277.183 14.2815 279.464 14.8858 279.917 17.9935C282.364 17.5996 284.882 18.9916 286.23 21.0687C287.572 23.1514 287.847 25.795 287.4 28.2283Z" fill="#2F2E41"/>
<path d="M277.695 127.71H273.722V97.115H276.953C277.109 97.115 277.259 97.177 277.37 97.2875C277.481 97.3979 277.544 97.5478 277.545 97.7044L277.695 127.71Z" fill="#3F3D56"/>
<path d="M274.094 127.872H231.437V106.083H274.094V127.872Z" fill="white"/>
<path d="M257.28 127.791H231.518V106.164H274.013V111.046C274.008 115.486 272.243 119.742 269.106 122.881C265.969 126.02 261.716 127.786 257.28 127.791Z" fill="#EC7B0C"/>
<path d="M277.048 97.9841C277.026 98.0247 277.01 98.0676 276.998 98.1121L275.527 103.786L273.932 106.81H231.599V106.057L234.009 103.786L236.82 98.4041C236.944 98.1665 237.107 97.9514 237.302 97.7677C237.748 97.3485 238.336 97.115 238.947 97.115H276.524C276.626 97.115 276.727 97.1414 276.815 97.1916C276.904 97.2418 276.979 97.3142 277.031 97.4016C277.084 97.4891 277.113 97.5886 277.116 97.6907C277.119 97.7927 277.095 97.8938 277.048 97.9841Z" fill="#3F3D56"/>
<path d="M274.094 127.872H231.437V106.083H274.094V127.872ZM231.76 127.548H273.77V106.407H231.76V127.548Z" fill="#3F3D56"/>
<path d="M276.313 100.886L275.527 103.786H234.009L235.35 101.373L276.313 100.886Z" fill="#EC7B0C"/>
<path d="M239.81 117.501H233.01V117.878H239.81V117.501Z" fill="white"/>
<path d="M239.81 118.819H233.01V119.196H239.81V118.819Z" fill="white"/>
<path d="M239.81 120.137H233.01V120.514H239.81V120.137Z" fill="white"/>
<path d="M235.644 113.306C236.995 113.306 238.09 112.21 238.09 110.858C238.09 109.506 236.995 108.411 235.644 108.411C234.293 108.411 233.198 109.506 233.198 110.858C233.198 112.21 234.293 113.306 235.644 113.306Z" fill="white"/>
<path d="M294.29 79.8765L284.565 78.4826C281.277 83.9861 280.108 98.6348 280.108 98.6348L270.591 121.271C269.961 121.7 269.455 122.287 269.123 122.973C268.792 123.66 268.647 124.422 268.703 125.182C268.759 125.942 269.014 126.675 269.443 127.305C269.872 127.935 270.459 128.441 271.146 128.772C271.832 129.103 272.593 129.247 273.353 129.19C274.113 129.133 274.844 128.876 275.473 128.447C276.103 128.017 276.608 127.428 276.937 126.741C277.267 126.054 277.41 125.292 277.352 124.531L292.978 98.1832L294.29 79.8765Z" fill="#FFB8B8"/>
<path d="M289.019 52.8593C290.524 53.0926 291.959 53.6549 293.223 54.5064C294.486 55.3579 295.546 56.4775 296.328 57.7857C297.11 59.0938 297.594 60.5583 297.746 62.0749C297.898 63.5915 297.714 65.123 297.207 66.5604L295.143 72.4139C295.143 72.4139 297.743 90.0387 293.459 95.0137L280.313 93.8229C280.313 93.8229 282.717 84.9309 280.872 80.6286C279.742 77.9939 279.804 68.8937 280.918 61.4908C281.768 55.8381 283.374 51.9844 289.019 52.8593Z" fill="#E6E6E6"/>
<path d="M206.447 23.6975C201.696 26.0688 198.081 30.2317 196.397 35.2705C194.713 40.3094 195.098 45.8113 197.467 50.566C202.401 60.467 220.232 77.3533 234.458 79.9047C228.338 61.31 236.847 42.4094 233.295 32.6841C229.5 22.2923 216.341 18.7596 206.447 23.6975Z" fill="#FF8915"/>
<path d="M213.116 47.2456C216.722 47.2456 219.644 44.3204 219.644 40.712C219.644 37.1036 216.722 34.1785 213.116 34.1785C209.51 34.1785 206.587 37.1036 206.587 40.712C206.587 44.3204 209.51 47.2456 213.116 47.2456Z" fill="white"/>
<path d="M234.332 90.3915C236.694 90.3915 238.608 88.4756 238.608 86.1122C238.608 83.7488 236.694 81.8329 234.332 81.8329C231.971 81.8329 230.056 83.7488 230.056 86.1122C230.056 88.4756 231.971 90.3915 234.332 90.3915Z" fill="#EC7B0C"/>
<path opacity="0.2" d="M215.106 33.844C215.963 33.8142 216.818 33.9538 217.621 34.2547C218.424 34.5557 219.161 35.0121 219.788 35.598C220.414 36.1838 220.92 36.8876 221.275 37.669C221.63 38.4504 221.828 39.2943 221.857 40.1522C221.886 41.0102 221.746 41.8654 221.444 42.6692C221.143 43.4729 220.686 44.2092 220.1 44.8362C219.514 45.4632 218.811 45.9685 218.03 46.3232C217.248 46.6778 216.405 46.875 215.548 46.9034C217.001 46.3626 218.214 45.3219 218.97 43.9678C219.727 42.6136 219.977 41.0342 219.676 39.5124C219.375 37.9906 218.543 36.6256 217.328 35.6617C216.113 34.6979 214.595 34.1981 213.046 34.2519C213.706 34.0056 214.402 33.8679 215.106 33.844Z" fill="#231F20"/>
<path opacity="0.2" d="M233.328 32.6879C236.88 42.4132 228.371 61.3138 234.491 79.9085C233.148 79.6611 231.825 79.3146 230.533 78.8719C225.548 60.8966 233.373 42.935 229.941 33.5387C226.87 25.1288 217.666 21.2121 209.023 22.641C218.509 19.4033 229.85 23.1648 233.328 32.6879Z" fill="#231F20"/>
<path d="M32.9218 122.918C28.0038 122.8 23.2402 124.641 19.6792 128.038C16.1181 131.435 14.0511 136.108 13.933 141.03C13.6871 151.279 20.979 172.842 31.5258 181.101C34.5653 163.217 49.7181 151.427 51.02 141.921C52.4112 131.764 43.1631 123.164 32.9218 122.918Z" fill="#D1D3D4"/>
<path d="M31.0166 145.799C34.3575 145.799 37.0659 143.089 37.0659 139.745C37.0659 136.402 34.3575 133.691 31.0166 133.691C27.6756 133.691 24.9672 136.402 24.9672 139.745C24.9672 143.089 27.6756 145.799 31.0166 145.799Z" fill="white"/>
<path d="M28.7352 190.096C30.9235 190.096 32.6974 188.32 32.6974 186.13C32.6974 183.94 30.9235 182.165 28.7352 182.165C26.5469 182.165 24.773 183.94 24.773 186.13C24.773 188.32 26.5469 190.096 28.7352 190.096Z" fill="#D1D3D4"/>
<path opacity="0.2" d="M35.62 134.983C37.0628 135.685 38.1676 136.933 38.6915 138.45C39.2154 139.968 39.1154 141.631 38.4136 143.075C38.0661 143.79 37.5813 144.429 36.9868 144.957C36.3924 145.484 35.7 145.889 34.9491 146.149C33.4327 146.673 31.7703 146.573 30.3276 145.871C31.7517 146.058 33.196 145.732 34.4018 144.951C35.6076 144.17 36.4963 142.984 36.9088 141.607C37.3212 140.231 37.2306 138.752 36.6531 137.435C36.0755 136.119 35.0488 135.052 33.7566 134.424C34.4038 134.508 35.0331 134.697 35.62 134.983Z" fill="#231F20"/>
<path opacity="0.2" d="M51.0453 141.938C49.7434 151.444 34.5906 163.235 31.5511 181.118C30.5585 180.333 29.6252 179.476 28.759 178.553C32.4587 161.668 46.6452 150.351 47.9031 141.167C49.029 132.947 43.1864 125.747 35.4888 123.169C44.66 124.631 52.3202 132.63 51.0453 141.938Z" fill="#231F20"/>
<path d="M103.293 44.0367C101.911 44.1272 100.619 44.7539 99.6913 45.7835C98.7638 46.8131 98.2743 48.1642 98.327 49.5494C98.3421 49.8308 98.3805 50.1105 98.4418 50.3855L82.7457 60.2816L91.4233 64.1224L104.998 54.1361C106.118 53.7937 107.093 53.0898 107.772 52.1343C108.45 51.1788 108.793 50.0255 108.748 48.8544C108.715 48.1882 108.552 47.535 108.267 46.9319C107.983 46.3288 107.582 45.7878 107.089 45.3396C106.595 44.8914 106.018 44.5449 105.391 44.3199C104.764 44.0949 104.098 43.9957 103.433 44.0281C103.386 44.0303 103.34 44.0332 103.293 44.0367Z" fill="#FFB6B6"/>
<path d="M88.1576 55.7837L92.0477 63.8161L76.6667 73.7215C75.5722 74.4324 74.3143 74.8513 73.0125 74.9386C71.7107 75.0259 70.4083 74.7786 69.2289 74.2202C67.795 73.5333 66.6231 72.3986 65.8897 70.9872C65.1563 69.5757 64.9012 67.9639 65.1629 66.3947L70.1538 37.8802C70.4888 35.8848 71.5752 34.0937 73.1894 32.8753C74.8037 31.657 76.8231 31.104 78.8323 31.3301C79.8109 31.4372 80.7589 31.7361 81.6221 32.2098C82.4852 32.6836 83.2467 33.3228 83.8631 34.0911C84.4794 34.8593 84.9385 35.7415 85.2141 36.6873C85.4898 37.6332 85.5766 38.624 85.4696 39.6034C85.4611 39.6808 85.4514 39.758 85.4406 39.8351C85.4029 40.1091 85.3504 40.3809 85.2834 40.6492L79.835 60.9282L88.1576 55.7837Z" fill="#EC7B0C"/>
<path d="M89.2508 68.2359H67.2541V90.2494H89.2508V68.2359Z" fill="#FFB8B8"/>
<path d="M141.416 133.067L149.816 130.239L154.495 153.123L148.802 155.039L141.416 133.067Z" fill="#FFB6B6"/>
<path d="M127.178 131.309L135.51 128.285L140.719 151.054L135.073 153.102L127.178 131.309Z" fill="#FFB6B6"/>
<path d="M68.0431 96.0004C63.6343 125.415 122.345 108.025 122.345 108.025L140.754 133.438L151.531 131.477C151.531 131.477 146.681 116.221 138.021 95.7685C134.175 86.6858 90.5041 88.9051 90.5041 88.9051L89.5973 81.7833L64.6141 81.2931L68.0431 96.0004Z" fill="#2F2E41"/>
<path d="M110.453 109.996L124.029 101.535C133.968 121.396 136.898 129.998 136.898 129.998L127.502 132.642L110.453 109.996Z" fill="#2F2E41"/>
<path d="M80.6092 32.464L76.1817 26.7686L69.8661 26.4945L69.2357 31.8512L66.1063 33.2953C62.9816 45.1755 62.499 57.5971 64.6926 69.6843C65.112 70.0795 65.4184 70.5795 65.5803 71.1328C65.7422 71.686 65.7537 72.2725 65.6135 72.8316L65.4106 73.6411L65.4294 73.6707C66.0953 74.7222 66.3212 75.9937 66.0584 77.2105L64.564 79.868C64.0276 80.8238 63.7058 81.8849 63.6208 82.9777C63.5357 84.0705 63.6896 85.1687 64.0716 86.196C64.4536 87.2233 65.0547 88.155 65.8329 88.9262C66.6111 89.6975 67.5479 90.2899 68.5781 90.6621C77.7645 93.9945 86.376 95.2357 92.7467 85.8847L94.7499 53.2982L80.6092 32.464Z" fill="#EC7B0C"/>
<path d="M75.9711 28.281C82.4203 28.281 87.6484 23.0489 87.6484 16.5948C87.6484 10.1406 82.4203 4.90851 75.9711 4.90851C69.5219 4.90851 64.2937 10.1406 64.2937 16.5948C64.2937 23.0489 69.5219 28.281 75.9711 28.281Z" fill="#FFB8B8"/>
<path d="M70.1089 2.50716C65.1646 2.60222 61.243 7.19197 61.3499 12.7587C57.691 16.5794 56.8047 35.3724 59.8619 40.3718C65.4546 41.0215 68.8563 27.1745 73.7609 29.1762L74.4071 26.1543L75.8717 30.0896C77.1181 30.6647 78.3552 31.2959 79.5828 31.9833C80.465 27.9336 80.2463 23.9973 77.8751 20.5686C75.7686 17.5226 80.8949 13.9064 84.5611 14.4176L84.5073 11.62L85.4282 14.4009C86.8573 15.4518 88.4381 15.0713 90.0592 14.3118C92.6879 0.63929 72.3358 -3.09971 70.1089 2.50716Z" fill="#2F2E41"/>
<path d="M146.215 158.91L149.957 158.421L150.164 154.797L152.337 158.11L162.263 156.812C162.739 156.75 163.183 156.537 163.529 156.205C163.876 155.872 164.107 155.438 164.189 154.965C164.271 154.492 164.2 154.005 163.986 153.575C163.772 153.145 163.427 152.795 163 152.575L154.358 148.133L153.891 144.557L145.618 146.146L146.215 158.91Z" fill="#2F2E41"/>
<path d="M136.329 158.943L139.724 157.293L138.774 153.79L141.883 156.244L150.888 151.867C151.32 151.658 151.673 151.315 151.897 150.89C152.12 150.465 152.202 149.98 152.131 149.505C152.059 149.03 151.838 148.591 151.499 148.251C151.16 147.911 150.721 147.688 150.247 147.615L140.643 146.14L139.07 142.896L131.725 147.024L136.329 158.943Z" fill="#2F2E41"/>
<path d="M85.0712 81.0131H89.2348V48.944H85.8487C85.6847 48.944 85.5273 49.0089 85.4111 49.1247C85.2948 49.2405 85.2291 49.3976 85.2283 49.5617L85.0712 81.0131Z" fill="#CCCCCC"/>
<path d="M88.8457 58.3442H133.558V81.1829H88.8457V58.3442Z" fill="white"/>
<path d="M88.9305 63.5463V58.4291H133.473V81.098H106.469C101.819 81.0927 97.3611 79.2419 94.0732 75.9514C90.7853 72.661 88.9358 68.1997 88.9305 63.5463Z" fill="#F2F2F2"/>
<path d="M85.7494 49.8549C85.7718 49.8974 85.7893 49.9424 85.8013 49.989L87.3431 55.9364L89.0154 59.106H133.388V58.3166L130.862 55.9364L127.915 50.2951C127.784 50.0461 127.614 49.8206 127.409 49.628C126.942 49.1886 126.326 48.944 125.685 48.944H86.2979C86.191 48.944 86.0859 48.9716 85.9928 49.0243C85.8997 49.0769 85.8217 49.1527 85.7666 49.2444C85.7114 49.336 85.6808 49.4404 85.6778 49.5474C85.6748 49.6543 85.6994 49.7603 85.7494 49.8549Z" fill="#F2F2F2"/>
<path d="M88.8457 58.3442H133.558V81.1829H88.8457V58.3442ZM133.218 80.8432H89.1851V58.6839H133.218L133.218 80.8432Z" fill="#E6E6E6"/>
<path d="M86.5194 52.8971L87.3432 55.9364H130.862L129.455 53.4069L86.5194 52.8971Z" fill="#CCCCCC"/>
<path d="M131.909 70.312H124.781V70.7067H131.909V70.312Z" fill="white"/>
<path d="M131.909 71.6935H124.781V72.0882H131.909V71.6935Z" fill="white"/>
<path d="M131.909 73.0751H124.781V73.4698H131.909V73.0751Z" fill="white"/>
<path d="M129.148 65.915C130.564 65.915 131.712 64.7663 131.712 63.3493C131.712 61.9323 130.564 60.7836 129.148 60.7836C127.732 60.7836 126.584 61.9323 126.584 63.3493C126.584 64.7663 127.732 65.915 129.148 65.915Z" fill="white"/>
<path d="M108.466 24.582C111.48 24.5096 114.399 25.6382 116.581 27.7195C118.763 29.8008 120.029 32.6643 120.101 35.6801C120.252 41.9602 115.784 55.1727 109.322 60.2333C107.459 49.2753 98.1744 42.0507 97.3766 36.2262C96.5242 30.0025 102.191 24.7328 108.466 24.582Z" fill="#D1D3D4"/>
<path d="M109.634 38.6026C111.681 38.6026 113.34 36.9418 113.34 34.893C113.34 32.8443 111.681 31.1835 109.634 31.1835C107.587 31.1835 105.927 32.8443 105.927 34.893C105.927 36.9418 107.587 38.6026 109.634 38.6026Z" fill="white"/>
<path d="M111.032 65.7449C112.372 65.7449 113.459 64.6571 113.459 63.3152C113.459 61.9734 112.372 60.8855 111.032 60.8855C109.691 60.8855 108.604 61.9734 108.604 63.3152C108.604 64.6571 109.691 65.7449 111.032 65.7449Z" fill="#D1D3D4"/>
<path opacity="0.2" d="M106.813 31.9749C106.375 32.188 105.984 32.4853 105.661 32.8498C105.338 33.2144 105.09 33.639 104.931 34.0994C104.772 34.5598 104.705 35.0471 104.734 35.5333C104.764 36.0196 104.888 36.4953 105.101 36.9334C105.314 37.3714 105.611 37.7632 105.975 38.0864C106.34 38.4096 106.764 38.6578 107.224 38.8168C107.684 38.9759 108.171 39.0427 108.657 39.0135C109.143 38.9843 109.618 38.8595 110.056 38.6464C109.183 38.7611 108.298 38.5612 107.559 38.0826C106.821 37.604 106.276 36.8778 106.023 36.0341C105.771 35.1904 105.826 34.2842 106.18 33.4777C106.534 32.6712 107.163 32.0171 107.955 31.6324C107.558 31.6842 107.173 31.7999 106.813 31.9749Z" fill="#231F20"/>
<path opacity="0.2" d="M97.3612 36.2368C98.1589 42.0614 107.444 49.2859 109.306 60.2439C109.914 59.763 110.486 59.2376 111.017 58.6722C108.75 48.3263 100.057 41.3914 99.2865 35.7639C98.5967 30.7271 102.177 26.3157 106.893 24.7362C101.274 25.632 96.58 30.5334 97.3612 36.2368Z" fill="#231F20"/>
<path d="M101.863 55.4292C100.482 55.3268 99.1149 55.7679 98.0535 56.6586C96.9921 57.5493 96.32 58.8194 96.18 60.1985C96.156 60.4793 96.1552 60.7616 96.1777 61.0425L79.2609 68.6621L87.3218 73.6713L102.15 65.6676C103.307 65.4841 104.371 64.9225 105.175 64.0705C105.979 63.2185 106.479 62.124 106.596 60.9579C106.718 59.6165 106.303 58.2815 105.441 57.2467C104.579 56.2119 103.342 55.5619 102.002 55.4399C101.956 55.4357 101.909 55.4321 101.863 55.4292Z" fill="#FFB6B6"/>
<path d="M85.2443 64.9596L87.9825 73.4547L71.3764 81.1274C70.194 81.6793 68.8902 81.9195 67.5889 81.8251C66.2876 81.7307 65.032 81.3048 63.9415 80.5879C62.6168 79.7085 61.6136 78.4221 61.0831 76.9224C60.5526 75.4227 60.5236 73.7911 61.0004 72.2734L69.8982 44.7283C70.5068 42.7987 71.8311 41.1759 73.5987 40.1936C75.3663 39.2113 77.4429 38.9442 79.4012 39.4472C80.3555 39.6892 81.2528 40.117 82.042 40.7061C82.8311 41.2951 83.4965 42.034 84.0003 42.8804C84.5041 43.7268 84.8364 44.6643 84.9782 45.6392C85.12 46.6142 85.0685 47.6075 84.8267 48.5626C84.8075 48.638 84.7873 48.7132 84.7658 48.788C84.6905 49.0541 84.6008 49.3159 84.4973 49.5724L76.2886 68.8981L85.2443 64.9596Z" fill="#EC7B0C"/>
</svg>
