<svg width="414" height="479" viewBox="0 0 414 479" fill="none" xmlns="http://www.w3.org/2000/svg">
<path d="M-158 -10H555V122.5C555 319.39 395.39 479 198.5 479V479C1.61049 479 -158 319.39 -158 122.5V-10Z" fill="#FF4949"/>
<path fill-rule="evenodd" clip-rule="evenodd" d="M31 218.6V218.6H39.24V330.2H47.8233V218.6H56.0633V181.4H64.6467V218.6H72.8867V330.2H81.47V255.8H89.71V441.8H98.2933V330.2H106.533V293H115.117V441.8H123.357V218.6H131.94V441.8H140.18V107H148.763V367.4H157.003V218.6H165.587V181.4H173.827V144.2H182.41V479H190.65V181.4H199.233V330.2H207.473V404.6H216.057V404.6H224.297V181.4H232.88V293H241.12V218.6H249.703V479H257.943V330.2H266.527V181.4H274.767V330.2H283.35V441.8H291.59V330.2H300.173V181.4H308.413V441.8H316.997V330.2H325.237V404.6H333.82V218.6H342.06V255.8H350.643V255.8H358.883V218.6H367.467V293H375.707V218.6H384.29V255.8H392.53V144.2H401.113V404.6H409.353V255.8H417.937V441.8H426.177V479H434.76V255.8H443V479H434.76V479H426.177V479H417.937V479H409.353V479H401.113V479H392.53V479H384.29V479H375.707V479H367.467V479H358.883V479H350.643V479H342.06V479H333.82V479H325.237V479H316.997V479H308.413V479H300.173V479H291.59V479H283.35V479H274.767V479H266.527V479H257.943V479H249.703V479H241.12V479H232.88V479H224.297V479H216.057V479H207.473V479H199.233V479H190.65V479H182.41V479H173.827V479H165.587V479H157.003V479H148.763V479H140.18V479H131.94V479H123.357V479H115.117V479H106.533V479H98.2933V479H89.71V479H81.47V479H72.8867V479H64.6467V479H56.0633V479H47.8233V479H39.24V479H31V479V218.6Z" fill="#F56060"/>
</svg>
